<?xml version="1.0" encoding="UTF-8"?>
<svg version="1.1" xmlns="http://www.w3.org/2000/svg" viewBox="0 0 512 512">
  <path d="M0 0 C1.26398661 0.85467119 2.51464934 1.72943663 3.75 2.625 C4.34425781 3.04265625 4.93851562 3.4603125 5.55078125 3.890625 C16.19479607 12.10374508 19.86750845 24.50542583 23.60302734 36.83886719 C24.47362771 39.71270084 25.35472764 42.58234045 26.24462891 45.45019531 C27.65191272 49.99203869 29.03667344 54.54031357 30.40859985 59.09295654 C30.96630978 60.93699384 31.52906013 62.77951477 32.09701538 64.62042236 C32.90454807 67.24739177 33.68915987 69.88024725 34.46875 72.515625 C34.71418045 73.29942535 34.9596109 74.08322571 35.21247864 74.89077759 C37.16271973 81.62830174 37.29164045 87.59881689 34.0625 93.9375 C29.93256011 98.73715988 25.31828904 101.03421018 19.29833984 102.74951172 C18.67656829 102.92982878 18.05479673 103.11014584 17.41418362 103.29592705 C15.34914616 103.89212538 13.28019998 104.47333913 11.2109375 105.0546875 C9.72488447 105.48060915 8.23910721 105.90749392 6.75358582 106.33526611 C3.55960272 107.25288454 0.36384855 108.16394222 -2.83346558 109.06988525 C-7.94802858 110.51915005 -13.05840453 111.9828033 -18.16821289 113.44873047 C-24.40557989 115.237182 -30.64386982 117.02234142 -36.88340855 118.80320168 C-47.8521761 121.9342369 -58.81335283 125.09083451 -69.76953125 128.265625 C-70.55513617 128.49326286 -71.34074108 128.72090073 -72.15015221 128.95543671 C-76.09099799 130.09751204 -80.03169593 131.24009643 -83.97232056 132.38293457 C-88.71770173 133.7590117 -93.46363556 135.13317552 -98.2097168 136.50683594 C-98.99400212 136.73383305 -99.77828745 136.96083015 -100.586339 137.19470596 C-102.16626892 137.65198107 -103.74619986 138.10925265 -105.32613182 138.56652069 C-126.97100854 144.83145875 -148.61351613 151.10457397 -170.25564873 157.37898374 C-190.02845649 163.11143879 -209.80150617 168.84305894 -229.57466507 174.57430267 C-233.51173336 175.71546281 -237.44879865 176.85663331 -241.38586426 177.99780273 C-249.00724003 180.20687817 -256.62861891 182.4159429 -264.25 184.625 C-263.58189566 184.62559709 -262.91379132 184.62619418 -262.2254414 184.62680936 C-222.63547045 184.66269679 -183.04557784 184.71932572 -143.45567762 184.80292095 C-138.70295531 184.81293851 -133.95023266 184.82278262 -129.19750977 184.83251953 C-127.7782267 184.83543159 -127.7782267 184.83543159 -126.33027125 184.83840248 C-111.00610275 184.86943063 -95.68194923 184.88640541 -80.35775524 184.89819422 C-64.63581613 184.91060155 -48.9139557 184.93809351 -33.19206625 184.97961307 C-23.48939854 185.00476043 -13.78686128 185.01811638 -4.08416051 185.01642957 C2.56772597 185.01639984 9.2194795 185.03101136 15.87131418 185.05716428 C19.71014461 185.07182411 23.54870238 185.08000142 27.38755608 185.07080269 C31.54985492 185.06099763 35.71143155 185.08200976 39.87367249 185.10601807 C41.0867132 185.09825765 42.29975392 185.09049723 43.54955345 185.08250165 C50.14978498 185.15007321 54.50746358 185.45521459 59.75 189.625 C64.29172987 194.60988511 64.32090386 198.96813596 64.25793457 205.37710571 C64.26729451 206.8421742 64.26729451 206.8421742 64.27684355 208.33684003 C64.29278805 211.60713038 64.28016294 214.87667688 64.26757812 218.14697266 C64.27299878 220.49289383 64.28012112 222.83881159 64.28881836 225.1847229 C64.30706712 231.55695569 64.29997598 237.92892965 64.28730202 244.30116701 C64.27820203 250.29748313 64.28514866 256.29377552 64.2910108 262.29009096 C64.30241514 274.89766968 64.289308 287.50513205 64.26780933 300.11269169 C64.24996329 310.91193753 64.25302206 321.71101122 64.27148438 332.51025391 C64.29293665 345.06421502 64.3012904 357.61807394 64.28903532 370.17205083 C64.28272846 376.81227069 64.28193481 383.45239486 64.29518127 390.09260941 C64.30677691 396.34223282 64.29864585 402.591533 64.27560425 408.84112167 C64.27033565 411.12913731 64.27179905 413.41718037 64.28065491 415.70518494 C64.34532832 434.11902258 62.40258257 447.40084261 49.4375 461.375 C37.90174581 472.29276736 25.16552794 474.0777407 9.89822388 474.01268005 C8.2977193 474.01685787 6.69721769 474.02233784 5.09672153 474.02899987 C0.71861222 474.04341443 -3.65930819 474.03922226 -8.03742766 474.03183305 C-12.76692313 474.02709378 -17.49637818 474.03961795 -22.2258606 474.04985046 C-31.4836126 474.06702898 -40.7412967 474.06788043 -49.9990605 474.06263756 C-57.5254236 474.05859283 -65.05176667 474.06004302 -72.57812881 474.06538582 C-73.6501494 474.06613424 -74.72216999 474.06688266 -75.82667605 474.06765376 C-78.00462794 474.06918527 -80.18257982 474.07072362 -82.3605317 474.07226873 C-102.77578828 474.08599037 -123.19100652 474.08055846 -143.60626222 474.06908352 C-162.27288623 474.05915172 -180.93941112 474.07209152 -199.60601984 474.09601771 C-218.78497515 474.12041491 -237.9638843 474.13001503 -257.14285481 474.12336498 C-267.90555716 474.11987412 -278.66818327 474.12209608 -289.43087387 474.13961601 C-298.59295821 474.15434573 -307.75491263 474.15496332 -316.91699444 474.1375451 C-321.58889667 474.12903909 -326.2605669 474.12687584 -330.93245697 474.14219666 C-335.2147162 474.15606555 -339.49654516 474.15125245 -343.77877964 474.13195742 C-345.32242437 474.12820384 -346.86610375 474.13110078 -348.40971754 474.14156907 C-364.45947966 474.24261692 -376.15677301 470.30052679 -388 459.3125 C-396.88533839 449.92421792 -400.77406244 438.74190041 -400.55451965 425.96907043 C-400.55128856 425.05038718 -400.54805746 424.13170393 -400.54472846 423.1851818 C-400.53069866 420.13335912 -400.49531534 417.08216463 -400.46020508 414.03051758 C-400.44628577 411.82947674 -400.43390632 409.62842571 -400.42294312 407.42736816 C-400.39743821 402.69283238 -400.3637406 397.95844967 -400.32447243 393.22400856 C-400.26475094 385.68701524 -400.24021264 378.15015738 -400.22331238 370.61296082 C-400.21712598 368.01985262 -400.2109318 365.42674444 -400.20473003 362.83363628 C-400.20166359 361.53463906 -400.19859715 360.23564183 -400.19543779 358.89728105 C-400.1787112 352.18435614 -400.15836992 345.47144826 -400.13452148 338.75854492 C-400.13214325 338.08569652 -400.12976501 337.41284811 -400.12731471 336.71961036 C-400.08781939 325.91700432 -400.00752774 315.11503327 -399.91407279 304.31277708 C-399.81866776 293.13744532 -399.78031229 281.96280035 -399.78573912 270.78706855 C-399.78673584 264.54667491 -399.76387817 258.30874837 -399.67627907 252.06891823 C-399.22992241 218.99266954 -403.19961254 190.67431993 -414.6082136 159.52176875 C-418.73280666 147.33173286 -417.32702275 132.33500315 -411.9609375 120.87109375 C-404.20555494 105.62990075 -393.13860923 98.16184952 -377.25 92.625 C-371.62342229 90.81215813 -365.9346144 89.2088402 -360.25 87.58984375 C-358.59747568 87.11447903 -356.94510542 86.16218567 C-351.77816745 85.1499213 -348.26246935 84.14119813 -344.74591064 83.13537598 C-339.16276288 81.53841 -333.58193612 79.93343845 -328.00146484 78.32714844 C-321.32907199 76.40702241 -314.65621748 74.48851975 -307.98269463 72.57232475 C-293.00354314 68.27089351 -278.03420771 63.93593582 -263.06741333 59.59173584 C-256.72779948 57.75165766 -250.38756798 55.91370946 -244.04741859 54.0754776 C-241.94835896 53.46685967 -239.84932099 52.85816711 -237.75028992 52.24945068 C-228.74560378 49.63814649 -219.74046293 47.02841543 -210.73501968 44.41972351 C-204.42745271 42.5925242 -198.11997218 40.76502649 -191.8125 38.9375 C-191.11956345 38.73673607 -190.42662689 38.53597214 -189.71269226 38.32912445 C-172.10410791 33.22729506 -154.49787144 28.11745628 -136.89481163 22.99659538 C-134.01614091 22.15916998 -131.1374445 21.32183292 -128.25874329 20.48451233 C-116.97721211 17.2030245 -116.97721211 17.2030245 -105.69631958 13.91934204 C-103.92979057 13.40496363 -102.16326023 12.8905898 -100.39672852 12.3762207 C-99.5325339 12.12457059 -98.66833929 11.87292048 -97.77795696 11.6136446 C-91.04980185 9.65513143 -84.31913482 7.70535933 -77.58787251 5.75755596 C-72.64790341 4.32616511 -67.71306074 2.87840896 -62.78149986 1.41832161 C-59.5842494 0.47351858 -56.3844003 -0.46226387 -53.18402481 -1.39641953 C-51.6992208 -1.83210912 -50.21556719 -2.27174351 -48.73324203 -2.71579361 C-31.43836764 -7.89302372 -16.10063418 -9.42253023 0 0 Z M-44.1328125 30.34375 C-45.44097337 30.72606407 -46.74948263 31.10718784 -48.05831909 31.48718262 C-51.47136922 32.48150788 -54.87950249 33.49173285 -58.2868042 34.5055542 C-61.77687251 35.54085374 -65.27143298 36.56075446 -68.765625 37.58203125 C-75.59817659 39.58146239 -82.42564361 41.59775654 -89.25 43.625 C-87.79099458 46.68245034 -86.39640858 48.68186825 -83.8984375 50.98828125 C-83.21966553 51.62064697 -82.54089355 52.2530127 -81.84155273 52.90454102 C-80.74435913 53.91085571 -80.74435913 53.91085571 -79.625 54.9375 C-78.08197541 56.3697315 -76.53900806 57.80202469 -74.99609375 59.234375 C-73.81442627 60.32588867 -73.81442627 60.32588867 -72.60888672 61.43945312 C-70.34464574 63.53730918 -68.09342748 65.64802434 -65.84765625 67.765625 C-65.14785645 68.42522217 -64.44805664 69.08481934 -63.72705078 69.7644043 C-62.41125796 71.00506746 -61.09580307 72.24608917 -59.78076172 73.48754883 C-35.20615995 232.65723822 -37.20465097 237.76404751 -38.94677734 243.02880859 C-40.85140327 248.28454855 -43.72632283 252.68517402 -46.8125 257.3125 C-49.74126999 261.28024633 -49.74126999 261.28024633 -51.25 265.625 C-23.86 265.625 3.53 265.625 31.75 265.625 C31.75 250.115 31.75 234.605 31.75 218.625 C-3.80443041 213.00550943 -3.80443041 213.00550943 -32.64306641 227.73217773 Z" fill="#A42EFF" transform="translate(420, 40)"/>
</svg>